<svg width="1200" height="155" viewBox="0 0 1200 155" fill="none" xmlns="http://www.w3.org/2000/svg">
<path d="M1167.46 65.9517C1173.6 65.9517 1179.15 67.2934 1184.1 69.9767C1189.05 72.5607 1192.92 76.4863 1195.69 81.7535C1198.56 87.0208 1200 93.431 1200 100.984V149.135H1186.63V102.922C1186.63 94.7727 1184.6 88.5612 1180.54 84.2878C1176.48 79.915 1170.93 77.7286 1163.9 77.7286C1156.77 77.7286 1151.07 79.9647 1146.81 84.4369C1142.65 88.9091 1140.57 95.4186 1140.57 103.966V149.135H1127.05V38.8203H1140.57V79.0702C1143.25 74.8962 1146.91 71.6662 1151.57 69.3804C1156.32 67.0946 1161.62 65.9517 1167.46 65.9517Z" fill="#110854"/>
<path d="M1092.41 78.6238V126.775C1092.41 130.75 1093.25 133.582 1094.94 135.272C1096.62 136.862 1099.54 137.657 1103.7 137.657H1113.65V149.136H1101.47C1093.95 149.136 1088.3 147.396 1084.54 143.918C1080.77 140.44 1078.89 134.725 1078.89 126.775V78.6238H1068.34V67.4433H1078.89V46.8711H1092.41V67.4433H1113.65V78.6238H1092.41Z" fill="#110854"/>
<path d="M1055.84 38.8203V149.135H1042.32V38.8203H1055.84Z" fill="#110854"/>
<path d="M939.844 107.99C939.844 99.6422 941.527 92.3376 944.895 86.0765C948.262 79.716 952.867 74.7966 958.711 71.3182C964.653 67.8398 971.239 66.1006 978.469 66.1006C985.6 66.1006 991.79 67.641 997.039 70.7219C1002.29 73.8027 1006.2 77.6787 1008.78 82.3496V67.4423H1022.44V149.135H1008.78V133.929C1006.1 138.7 1002.09 142.675 996.742 145.855C991.493 148.936 985.352 150.476 978.321 150.476C971.091 150.476 964.554 148.687 958.711 145.11C952.867 141.532 948.262 136.513 944.895 130.053C941.527 123.593 939.844 116.239 939.844 107.99ZM1008.78 108.139C1008.78 101.978 1007.54 96.611 1005.06 92.0394C1002.59 87.4678 999.218 83.9894 994.959 81.6043C990.8 79.1197 986.194 77.8774 981.143 77.8774C976.092 77.8774 971.487 79.07 967.327 81.4552C963.168 83.8404 959.85 87.3188 957.374 91.8904C954.898 96.4619 953.66 101.829 953.66 107.99C953.66 114.251 954.898 119.717 957.374 124.388C959.85 128.96 963.168 132.488 967.327 134.973C971.487 137.358 976.092 138.55 981.143 138.55C986.194 138.55 990.8 137.358 994.959 134.973C999.218 132.488 1002.59 128.96 1005.06 124.388C1007.54 119.717 1008.78 114.301 1008.78 108.139Z" fill="#110854"/>
<path d="M930.026 105.158C930.026 107.742 929.878 110.475 929.58 113.357H864.511C865.007 121.407 867.73 127.718 872.682 132.289C877.733 136.762 883.824 138.998 890.955 138.998C896.798 138.998 901.651 137.656 905.514 134.973C909.475 132.19 912.248 128.513 913.833 123.941H928.392C926.213 131.792 921.855 138.203 915.319 143.172C908.782 148.041 900.661 150.476 890.955 150.476C883.23 150.476 876.297 148.737 870.157 145.259C864.115 141.78 859.361 136.861 855.895 130.5C852.428 124.041 850.695 116.587 850.695 108.139C850.695 99.6919 852.379 92.2879 855.746 85.9274C859.114 79.5669 863.818 74.6972 869.86 71.3182C876 67.8398 883.032 66.1006 890.955 66.1006C898.68 66.1006 905.514 67.7901 911.456 71.1691C917.399 74.5481 921.954 79.2191 925.124 85.182C928.392 91.0456 930.026 97.7042 930.026 105.158ZM916.062 102.326C916.062 97.1576 914.923 92.7351 912.645 89.058C910.367 85.2814 907.247 82.449 903.285 80.5608C899.423 78.5731 895.115 77.5793 890.361 77.5793C883.527 77.5793 877.684 79.7657 872.831 84.1385C868.077 88.5113 865.353 94.5737 864.66 102.326H916.062Z" fill="#110854"/>
<path d="M804.096 65.9517C810.236 65.9517 815.782 67.2934 820.734 69.9767C825.686 72.5607 829.549 76.4863 832.322 81.7535C835.194 87.0208 836.63 93.431 836.63 100.984V149.135H823.26V102.922C823.26 94.7727 821.23 88.5612 817.169 84.2878C813.108 79.915 807.562 77.7286 800.53 77.7286C793.399 77.7286 787.705 79.9647 783.446 84.4369C779.286 88.9091 777.206 95.4186 777.206 103.966V149.135H763.688V38.8203H777.206V79.0702C779.88 74.8962 783.545 71.6662 788.2 69.3804C792.954 67.0946 798.252 65.9517 804.096 65.9517Z" fill="#110854"/>
<path d="M692.387 78.6238V126.775C692.387 130.75 693.229 133.582 694.912 135.272C696.596 136.862 699.518 137.657 703.677 137.657H713.631V149.136H701.449C693.922 149.136 688.277 147.396 684.513 143.918C680.75 140.44 678.868 134.725 678.868 126.775V78.6238H668.32V67.4433H678.868V46.8711H692.387V67.4433H713.631V78.6238H692.387Z" fill="#110854"/>
<path d="M623.517 65.9541C633.421 65.9541 641.443 68.9853 647.584 75.0476C653.724 81.0106 656.794 89.6568 656.794 100.986V149.137H643.424V102.924C643.424 94.775 641.394 88.5636 637.333 84.2902C633.272 79.9173 627.726 77.7309 620.694 77.7309C613.563 77.7309 607.869 79.967 603.61 84.4392C599.45 88.9115 597.37 95.421 597.37 103.968V149.137H583.852V67.4448H597.37V79.0726C600.045 74.8985 603.659 71.6686 608.215 69.3828C612.87 67.097 617.971 65.9541 623.517 65.9541Z" fill="#110854"/>
<path d="M568.987 105.158C568.987 107.742 568.838 110.475 568.541 113.357H503.472C503.967 121.407 506.691 127.718 511.643 132.289C516.694 136.762 522.785 138.998 529.916 138.998C535.759 138.998 540.612 137.656 544.475 134.973C548.436 132.19 551.209 128.513 552.794 123.941H567.353C565.174 131.792 560.816 138.203 554.28 143.172C547.743 148.041 539.622 150.476 529.916 150.476C522.191 150.476 515.258 148.737 509.118 145.259C503.076 141.78 498.322 136.861 494.856 130.5C491.389 124.041 489.656 116.587 489.656 108.139C489.656 99.6919 491.34 92.2879 494.707 85.9274C498.075 79.5669 502.779 74.6972 508.82 71.3182C514.961 67.8398 521.993 66.1006 529.916 66.1006C537.641 66.1006 544.475 67.7901 550.417 71.1691C556.359 74.5481 560.915 79.2191 564.085 85.182C567.353 91.0456 568.987 97.7042 568.987 105.158ZM555.022 102.326C555.022 97.1576 553.883 92.7351 551.606 89.058C549.328 85.2814 546.208 82.449 542.246 80.5608C538.384 78.5731 534.076 77.5793 529.322 77.5793C522.488 77.5793 516.645 79.7657 511.792 84.1385C507.038 88.5113 504.314 94.5737 503.621 102.326H555.022Z" fill="#110854"/>
<path d="M455.777 80.7124C458.154 76.0414 461.521 72.414 465.879 69.83C470.336 67.2461 475.733 65.9541 482.072 65.9541V79.967H478.506C463.353 79.967 455.777 88.2158 455.777 104.713V149.137H442.258V67.4448H455.777V80.7124Z" fill="#110854"/>
<path d="M403.324 80.7124C405.701 76.0414 409.068 72.414 413.426 69.83C417.882 67.2461 423.28 65.9541 429.619 65.9541V79.967H426.053C410.9 79.967 403.324 88.2158 403.324 104.713V149.137H389.805V67.4448H403.324V80.7124Z" fill="#110854"/>
<path d="M369.935 67.4434V149.136H356.416V137.061C353.841 141.235 350.226 144.514 345.571 146.9C341.015 149.185 335.964 150.328 330.418 150.328C324.08 150.328 318.385 149.036 313.334 146.452C308.283 143.769 304.272 139.794 301.3 134.527C298.428 129.259 296.992 122.849 296.992 115.296V67.4434H310.363V113.507C310.363 121.557 312.393 127.769 316.453 132.141C320.514 136.415 326.06 138.552 333.092 138.552C340.322 138.552 346.017 136.315 350.176 131.843C354.336 127.371 356.416 120.861 356.416 112.315V67.4434H369.935Z" fill="#110854"/>
<path d="M205.43 108.139C205.43 99.6919 207.113 92.3376 210.481 86.0765C213.848 79.716 218.503 74.7966 224.445 71.3182C230.487 67.8398 237.37 66.1006 245.095 66.1006C255.098 66.1006 263.318 68.5355 269.756 73.4052C276.293 78.275 280.601 85.033 282.681 93.6792H268.122C266.735 88.7101 264.012 84.7845 259.951 81.9024C255.989 79.0203 251.037 77.5793 245.095 77.5793C237.37 77.5793 231.13 80.2626 226.377 85.6293C221.623 90.8965 219.246 98.3999 219.246 108.139C219.246 117.978 221.623 125.581 226.377 130.948C231.13 136.314 237.37 138.998 245.095 138.998C251.037 138.998 255.989 137.606 259.951 134.824C263.913 132.041 266.636 128.066 268.122 122.898H282.681C280.502 131.246 276.144 137.954 269.607 143.023C263.071 147.992 254.9 150.476 245.095 150.476C237.37 150.476 230.487 148.737 224.445 145.259C218.503 141.78 213.848 136.861 210.481 130.5C207.113 124.14 205.43 116.686 205.43 108.139Z" fill="#110854"/>
<path d="M158.954 44.6023C153.842 38.7075 146.714 35.3532 138.873 35.1559H138.357C126.215 35.1559 114.441 44.701 99.4478 58.4144C95.6871 51.7303 92.9588 44.701 90.3043 37.869C84.1595 22.0591 77.7934 5.70664 59.6047 0.921751C49.7976 -1.66801 38.8107 1.24239 28.6349 9.11032C20.5729 15.3504 13.3465 24.5749 8.3078 35.0819C2.87578 46.4522 0 59.0063 0 71.4618C0 71.7578 0 72.1031 0 72.4484C0.245793 94.375 8.92228 115.019 24.3826 130.533C32.0268 138.204 41.4652 144.468 51.7394 148.686C61.7923 152.805 72.7055 155 83.2746 155C106.01 155 127.247 145.998 143.051 129.67C157.897 114.328 166.549 93.8077 166.82 73.361C166.918 65.0244 166.23 52.9635 158.979 44.6023H158.954ZM153.473 68.4034C152.981 74.4955 149.565 79.7737 144.084 82.8814C138.332 86.1371 131.155 86.2358 124.887 83.1281C117.931 79.6751 112.131 75.2355 107.215 69.5627C117.71 59.8696 130.27 48.6473 138.381 48.6473H138.578C142.412 48.7459 146.173 50.5464 148.926 53.6048C151.31 56.2686 154.063 61.0041 153.448 68.4281L153.473 68.4034ZM149.639 95.1643C145.239 106.535 138.111 116.82 129.14 124.614C116.358 135.688 100.48 141.533 83.25 141.533C64.5943 141.533 47.0693 134.257 33.8702 121.013C30.9699 118.102 27.9958 114.55 25.3412 110.826C28.5611 111.813 31.9531 112.331 35.2713 112.331C46.2828 112.331 57.6384 108.483 69.9772 100.59C79.9072 94.227 89.2228 86.0878 97.3094 78.6885C103.356 85.5698 110.435 90.9713 118.915 95.1889C128.82 100.097 140.2 100.072 149.639 95.1889V95.1643ZM35.2467 98.8639C27.5534 98.8639 21.8018 96.1262 18.1395 90.7494C14.2314 84.9779 13.3957 77.5292 13.4203 72.2511V71.4618C13.4203 61.0288 15.8291 50.4724 20.4008 40.952C24.5547 32.2948 30.4046 24.7722 36.8443 19.79C42.178 15.671 47.5609 13.5006 52.4276 13.5006C53.7303 13.5006 55.0084 13.6486 56.1882 13.9692C67.7651 17.0276 71.9681 27.8306 77.7934 42.8018C80.8412 50.6204 84.2578 59.4009 89.3211 67.7622C71.2553 84.3119 53.5091 98.8639 35.2467 98.8639Z" fill="#5842FF"/>
</svg>
